<mxfile host="app.diagrams.net" modified="2024-03-27T04:41:38.568Z" agent="Mozilla/5.0 (Macintosh; Intel Mac OS X 10_15_7) AppleWebKit/537.36 (KHTML, like Gecko) Chrome/123.0.0.0 Safari/537.36" version="23.1.5" etag="T_jevUSRsOE44I-U-fnp" type="github">
  <diagram name="Page-1" id="EQJSBqWlHrxTOdyxTY03">
    <mxGraphModel>
      <root>
        <mxCell id="0" />
        <mxCell id="1" parent="0" />
      </root>
    </mxGraphModel>
  </diagram>
</mxfile>
